<svg xmlns="http://www.w3.org/2000/svg" viewBox="0 0 15.941 13.9">
  <defs>
    <style>
      .cls-1 {
        fill: #fff;
      }
    </style>
  </defs>
  <path id="account-settings-variant_2_" class="cls-1" d="M158.6,3.9a2.8,2.8,0,0,0-2.8,2.8,2.862,2.862,0,0,0,2.8,2.8,2.8,2.8,0,1,0,0-5.6m0,7c-1.9,0-5.6.9-5.6,2.8v1.4h7.8a1.7,1.7,0,0,1-.1-.7,4.719,4.719,0,0,1,1-3,28.678,28.678,0,0,0-3.1-.5m6.4,0c-.1,0-.1.1-.2.1l-.1.9a2.092,2.092,0,0,0-.6.4l-.8-.4c-.1,0-.2,0-.2.1l-.7,1.2c-.1.1,0,.1.1.2l.8.6v.7l-.8.6c-.1.1-.1.1-.1.2l.7,1.2c.1.1.1.1.2.1l.8-.4c.2.1.4.3.6.4l.1.9c0,.1.1.1.2.1h1.4a.1.1,0,0,0,.1-.1l.1-.9a2.092,2.092,0,0,0,.6-.4l.8.4c.1,0,.2,0,.2-.1l.7-1.2c.1-.1,0-.1-.1-.2l-.8-.6V14l.8-.6c.1-.1.1-.1.1-.2l-.7-1.2c-.1-.1-.1-.1-.2-.1l-.8.4a2.092,2.092,0,0,0-.6-.4l-.1-.9a.1.1,0,0,0-.1-.1m-.7,2.5a1.1,1.1,0,1,1-1.1,1.1,1.11,1.11,0,0,1,1.1-1.1Z" transform="translate(-153 -3.9)"/>
</svg>
