<svg xmlns="http://www.w3.org/2000/svg" viewBox="0 0 24 20.05">
  <defs>
    <style>
      .cls-1 {
        fill: #fff;
      }
    </style>
  </defs>
  <g id="Group_43" data-name="Group 43" transform="translate(-52 0.05)">
    <path id="Path_17" data-name="Path 17" class="cls-1" d="M74.5,20h-21A1.538,1.538,0,0,1,52,18.5v-3A1.538,1.538,0,0,1,53.5,14h21A1.538,1.538,0,0,1,76,15.5v3A1.538,1.538,0,0,1,74.5,20Zm-2.3-4.1A1.1,1.1,0,1,0,73.3,17,1.049,1.049,0,0,0,72.2,15.9Zm-3,0A1.1,1.1,0,1,0,70.3,17,1.049,1.049,0,0,0,69.2,15.9Z"/>
    <path id="Path_18" data-name="Path 18" class="cls-1" d="M71.6,9.8a.746.746,0,0,0,0-.9,11.207,11.207,0,0,0-15.1,0,.561.561,0,0,0,0,.9l1.3,1.3a.608.608,0,0,0,.8,0,8.481,8.481,0,0,1,11,0,.608.608,0,0,0,.8,0Z"/>
    <path id="Path_19" data-name="Path 19" class="cls-1" d="M75.8,5.5a.746.746,0,0,0,0-.9,17.3,17.3,0,0,0-23.6,0,.631.631,0,0,0,0,.9l1.3,1.3a.608.608,0,0,0,.8,0,14.212,14.212,0,0,1,19.4,0,.608.608,0,0,0,.8,0l1.3-1.3Z"/>
  </g>
</svg>
