<svg xmlns="http://www.w3.org/2000/svg" viewBox="0 0 24 19.2">
  <defs>
    <style>
      .cls-1 {
        fill: #fff;
      }
    </style>
  </defs>
  <path id="Path_16" data-name="Path 16" class="cls-1" d="M23.4,15.6H14.3a1.216,1.216,0,0,1-1.2,1.2H10.8a1.287,1.287,0,0,1-1.2-1.2H.6a.645.645,0,0,0-.6.6v.6a2.433,2.433,0,0,0,2.4,2.4H21.6A2.433,2.433,0,0,0,24,16.8v-.6A.645.645,0,0,0,23.4,15.6ZM21.6,1.8A1.793,1.793,0,0,0,19.8,0H4.2A1.793,1.793,0,0,0,2.4,1.8V14.4H21.6ZM19.2,12H4.8V2.4H19.2Z"/>
</svg>
