<svg id="logo-white" xmlns="http://www.w3.org/2000/svg" viewBox="0 0 240 26.069">
  <defs>
    <style>
      .cls-1 {
        fill: #ed1c24;
      }

      .cls-2 {
        fill: #fff;
      }
    </style>
  </defs>
  <g id="Layer_1" data-name="Layer 1">
    <path id="Path_2" data-name="Path 2" class="cls-1" d="M1.5,0H34.363L7.886,26.069,0,23.051,16.9,6.517H1.5Z"/>
    <path id="Path_3" data-name="Path 3" class="cls-2" d="M35.064,8.46h-.982L15.41,26.721l.835.269Z" transform="translate(-9.133 -5.014)"/>
    <path id="Path_4" data-name="Path 4" class="cls-2" d="M3.68,14.81H53.236v4.183H41.118V30.236H36.983V18.993H3.68Z" transform="translate(-2.181 -8.777)"/>
    <path id="Path_5" data-name="Path 5" class="cls-2" d="M157.316,26.26V14.81h4.134V30.236H136.644a3.691,3.691,0,0,1-1.3-.24,3.4,3.4,0,0,1-1.128-.7,3.283,3.283,0,0,1-.778-1.132,3.821,3.821,0,0,1-.285-1.523V14.83h4.1V25.274a1.222,1.222,0,0,0,.191.713.57.57,0,0,0,.477.273Z" transform="translate(-78.913 -8.777)"/>
    <path id="Path_6" data-name="Path 6" class="cls-2" d="M214.224,14.81l20.383,10.876V14.81h4.139V30.236h-3.817L214.542,19.388V30.236h-4.1V14.81Z" transform="translate(-124.721 -8.777)"/>
    <path id="Path_7" data-name="Path 7" class="cls-2" d="M291.514,14.81,311.9,25.686V14.81h4.134V30.236h-3.817L291.832,19.388V30.236h-4.1V14.81Z" transform="translate(-170.528 -8.777)"/>
    <path id="Path_8" data-name="Path 8" class="cls-2" d="M369.126,24.509V26.26h24.2v3.976H365.02V14.81h28.305v3.976h-24.2V20.5h24.2v4Z" transform="translate(-216.336 -8.777)"/>
    <path id="Path_9" data-name="Path 9" class="cls-2" d="M470.609,26.29v3.976H445.8a3.708,3.708,0,0,1-1.3-.24,3.4,3.4,0,0,1-1.128-.7,3.342,3.342,0,0,1-.786-1.132,3.821,3.821,0,0,1-.285-1.523V14.86h4.1V25.3a1.087,1.087,0,0,0,.22.713.676.676,0,0,0,.542.273Z" transform="translate(-262.136 -8.807)"/>
    <path id="Path_10" data-name="Path 10" class="cls-2" d="M543.015,26.26a.839.839,0,0,0,.542-.175.705.705,0,0,0,.244-.607v-.285a.7.7,0,0,0-.175-.554.863.863,0,0,0-.558-.143H523.109a3.633,3.633,0,0,1-1.32-.24,3.208,3.208,0,0,1-1.1-.7,3.434,3.434,0,0,1-.766-1.128,3.826,3.826,0,0,1-.285-1.527V18.4a3.823,3.823,0,0,1,.285-1.523,3.449,3.449,0,0,1,.766-1.132,3.257,3.257,0,0,1,1.1-.7,3.633,3.633,0,0,1,1.32-.24h24.847v3.976H524.445a.892.892,0,0,0-.542.143.671.671,0,0,0-.191.558v.289a.664.664,0,0,0,.224.574.892.892,0,0,0,.538.159h19.959a3.638,3.638,0,0,1,1.336.253,3.307,3.307,0,0,1,1.112.733,3.564,3.564,0,0,1,.745,1.132,3.748,3.748,0,0,1,.289,1.495v2.513a3.823,3.823,0,0,1-.289,1.523,3.42,3.42,0,0,1-.762,1.132,3.212,3.212,0,0,1-1.112.7,3.805,3.805,0,0,1-1.336.24H519.61V26.26Z" transform="translate(-307.956 -8.777)"/>
  </g>
</svg>
