<svg xmlns="http://www.w3.org/2000/svg" viewBox="0 0 20 20">
  <defs>
    <style>
      .cls-1 {
        fill: #fff;
      }
    </style>
  </defs>
  <path id="Path_15" data-name="Path 15" class="cls-1" d="M166,0a10,10,0,1,0,10,10A10.029,10.029,0,0,0,166,0Zm6.9,6H170a17.832,17.832,0,0,0-1.4-3.6A8.049,8.049,0,0,1,172.9,6ZM166,2a13.427,13.427,0,0,1,1.9,4h-3.8A14.7,14.7,0,0,1,166,2Zm-7.7,10a6.448,6.448,0,0,1-.3-2,6.448,6.448,0,0,1,.3-2h3.4a13.4,13.4,0,0,0-.1,2c0,.7.1,1.3.1,2Zm.8,2H162a15.806,15.806,0,0,0,1.4,3.6A8.049,8.049,0,0,1,159.1,14ZM162,6h-2.9a8.428,8.428,0,0,1,4.3-3.6A26.709,26.709,0,0,0,162,6Zm4,12a13.427,13.427,0,0,1-1.9-4h3.8A14.7,14.7,0,0,1,166,18Zm2.3-6h-4.7a13.551,13.551,0,0,1-.2-2,12.311,12.311,0,0,1,.2-2h4.7a12.31,12.31,0,0,1,.2,2A13.554,13.554,0,0,1,168.3,12Zm.3,5.6A14.187,14.187,0,0,0,170,14h2.9A8.5,8.5,0,0,1,168.6,17.6Zm1.8-5.6a13.4,13.4,0,0,0,.1-2c0-.7-.1-1.3-.1-2h3.4a6.448,6.448,0,0,1,.3,2,6.448,6.448,0,0,1-.3,2Z" transform="translate(-156)"/>
</svg>
